<?xml-stylesheet type="text/css" href="../styles/style.css"?>
<svg class="svg-link" xmlns="http://www.w3.org/2000/svg" viewBox="0 0 106 60" xml:space="preserve">
<path d="m38 49.8.3.2c-.2.2-.4.3-.6.4-.3.1-.6.1-.9.1s-.6 0-.8-.1-.4-.2-.6-.4c-.2-.2-.3-.4-.4-.6-.1-.2-.1-.5-.1-.7 0-.3 0-.5.1-.7.1-.2.3-.4.4-.6.2-.2.4-.3.7-.4.3-.1.6-.1.8-.1.3 0 .5 0 .8.1.2.1.4.2.6.4l-.3.2h-.2l-.1-.1-.1-.1c-.1 0-.1-.1-.2-.1-.1.1-.2.1-.2.1H37c-.2 0-.4 0-.6.1-.2.1-.3.2-.5.3-.1.1-.2.3-.3.4-.1.2-.1.4-.1.6 0 .2 0 .4.1.6.1.2.2.3.3.4.1.1.3.2.5.3.2.1.4.1.6.1h.3c.2 0 .4-.1.5-.2 0 0 0-.1.2-.2 0 .1 0 0 0 0zm6.3-1c0 .3 0 .5-.1.7-.1.2-.2.4-.4.6-.2.2-.4.3-.6.4-.5.2-1.1.2-1.7 0-.2-.1-.5-.2-.6-.4-.2-.2-.3-.4-.4-.6-.2-.5-.2-1 0-1.5.1-.2.2-.4.4-.6.2-.2.4-.3.6-.4.5-.2 1.1-.2 1.7 0 .2.1.5.2.6.4.2.2.3.4.4.6.1.2.1.5.1.8zm-.5 0c0-.2 0-.4-.1-.6-.1-.2-.2-.3-.3-.4-.1-.1-.3-.2-.5-.3-.4-.1-.8-.1-1.2 0-.2.1-.3.2-.5.3-.1.1-.2.3-.3.4-.1.4-.1.8 0 1.2.1.2.2.3.3.4.1.1.3.2.5.3.4.1.8.1 1.2 0 .2-.1.3-.2.5-.3.1-.1.2-.3.3-.4 0-.2.1-.4.1-.6zm4.7.6.1.1s0-.1.1-.1c0 0 0-.1.1-.1l1.4-2.2.1-.1h.5v3.6h-.6v-2.8L48.8 50s0 .1-.1.1h-.3s-.1 0-.1-.1L47 47.8v2.8h-.5V47h.5s.1 0 .1.1l1.4 2.3c.1-.1.1-.1 0 0zm5.3-.2v1.3h-.6v-3.6h1.2c.2 0 .5 0 .7.1.2 0 .3.1.5.2.1.1.2.2.3.4.1.1.1.3.1.5s0 .3-.1.5c-.1.1-.2.3-.3.4s-.3.2-.5.2c-.2.1-.4.1-.7.1.1 0-.6-.1-.6-.1zm0-.4h.7c.1 0 .3 0 .4-.1.1 0 .2-.1.3-.2l.2-.2c0-.1.1-.2.1-.3s0-.2-.1-.3c0-.1-.1-.2-.2-.2-.2-.1-.5-.2-.7-.2h-.7v1.5zm7.3 1.7h-.5l-.1-.1-.4-.9h-1.9l-.2.9s0 .1-.1.1h-.6l1.6-3.6h.6s1.7 3.6 1.6 3.6zm-2.7-1.3h1.5l-.6-1.5c0-.1-.1-.2-.1-.3l-.1.2c0 .1 0 .1-.1.2l-.6 1.4zm5-2.2c.1 0 .1 0 0 0l2.5 2.8v-2.7h.5v3.6H66s-.1 0-.1-.1l-2.4-2.7v2.8H63v-3.6l.4-.1zm7 2.1v1.4h-.5v-1.4l-1.5-2.2h.6l.1.1.9 1.4c0 .1.1.1.1.2s0 .1.1.2l.1-.2c0-.1.1-.1.1-.2l.9-1.4s0-.1.1-.1h.6l-1.6 2.2zM48.3 41c.2 0 .5 0 .7.1 3.7-1.4 6.8-3.8 8.9-6.7 2.2-3 3.3-6.4 3.2-9.9L57 21c.8 3.7.4 7.6-1.1 11.1-1.5 3.4-4.2 6.5-7.6 8.9z"/>
<path d="M46.8 40.8h.2c3.7-2.3 6.5-5.5 8.1-9.2 1.6-3.7 1.8-7.7.7-11.6L50 15c2.3 4.1 3.3 8.7 2.7 13.3s-2.5 8.9-5.9 12.5zm19.6-12.3c-1 3.8-3.4 7.3-6.8 9.9-1 .8-2.1 1.4-3.2 2 2.8-.7 5.4-2 7.5-3.7s3.8-3.8 4.9-6.2l-2.4-2z"/>
<path d="m65.6 28-3.3-2.9c-.1 3.3-1.1 6.5-3.1 9.3-2 2.8-4.8 5.1-8.2 6.7.7 0 1.5 0 2.2-.1 3.1-1.1 5.9-2.9 8.1-5.2 2.1-2.3 3.6-5 4.3-7.8zM47.3 12.9l-4-3.5c-3.5 1.2-6.6 3.3-8.8 6-2.1 2.8-3.3 6-3.3 9.3 0 3.7 1.4 7.2 4 10.1 2.6 2.9 6.2 4.9 10.3 5.8 3.6-3.9 5.8-8.6 6.1-13.6.4-5-1.2-10-4.3-14.1zm27.5 14.5c0-4.3-2-8.5-5.5-11.6S61 11 56 11c-2.3 0-4.6.4-6.8 1.1l24.4 21.2c.7-1.9 1.2-3.9 1.2-5.9z"/>
</svg>
