<?xml-stylesheet type="text/css" href="../styles/style.css"?>
<svg class="svg-link" xmlns="http://www.w3.org/2000/svg" viewBox="0 0 106 60" xml:space="preserve">
<path d="m38.5 6.6 7 6.6h-13v32.2h34V33.1l7 6.6V6.6h-35zm27.7 25.7L46.3 13.5h19.9v18.8zM60 40.7H37.9V19.1h1.6v20.2h20.6l-.1 1.4zm-16.9 9-.8 1.7-.8-1.7h-.7l1.2 2.2v1.3h.6v-1.3l1.2-2.2h-.7zm1 3.6.3-.8h1.4l.3.8h.6l-1.3-3.6h-.6l-1.3 3.6h.6zm1-2.8.5 1.5h-1l.5-1.5zm3.3 1.3c-.1.1-.1.3-.1.5 0 .3.1.5.3.7.2.2.5.3.8.3.3 0 .7-.1.9-.3l.2.2h.7l-.5-.6c.2-.3.3-.6.3-1.1h-.5c0 .2 0 .5-.1.7l-.7-.8.2-.2c.2-.1.3-.2.4-.4.1-.1.1-.3.1-.4 0-.2-.1-.4-.2-.6-.2-.2-.4-.2-.6-.2-.3 0-.5.1-.7.2-.3.3-.4.5-.4.8 0 .1 0 .2.1.4.1.1.2.3.3.4-.3.1-.4.3-.5.4zm1.6.8c-.2.1-.4.2-.6.2-.2 0-.3-.1-.4-.2s-.2-.2-.2-.4.1-.4.3-.5l.1-.1.8 1zm-.7-1.5c-.2-.2-.3-.4-.3-.5s0-.2.1-.3c.1-.1.2-.1.3-.1s.2 0 .3.1c.1.1.1.1.1.2s-.1.3-.2.3l-.1.1-.2.2zm5.8 1.9c.2-.2.4-.5.4-.9h-.6c0 .3-.1.4-.2.5s-.3.2-.5.2c-.3 0-.5-.1-.6-.3-.1-.2-.2-.5-.2-.9v-.3c0-.4.1-.7.2-.9.1-.2.4-.3.6-.3s.4.1.5.2c.1.1.2.3.2.6h.6c0-.4-.2-.7-.4-.9-.2-.2-.6-.3-.9-.3-.3 0-.5.1-.8.2-.2.1-.4.3-.5.6-.1.3-.2.6-.2.9v.3c0 .3.1.6.2.9.1.2.3.4.5.6.2.1.5.2.7.2.5-.1.8-.2 1-.4zm3.7-.5c.1-.3.2-.6.2-.9v-.2c0-.3-.1-.7-.2-.9-.1-.3-.3-.5-.5-.6s-.5-.2-.8-.2-.5.1-.8.2c-.2.1-.4.3-.5.6s-.2.6-.2.9v.2c0 .3.1.6.2.9.1.3.3.5.5.6s.5.2.8.2.5-.1.8-.2c.2-.1.3-.4.5-.6zm-.7-2c.1.2.2.5.2.9v.2c0 .4-.1.7-.2.9s-.4.3-.6.3c-.3 0-.5-.1-.6-.3-.2-.2-.2-.5-.2-.9v-.2c0-.4.1-.7.2-.9.2-.2.4-.3.6-.3.2 0 .4.1.6.3z"/></svg>
