<?xml-stylesheet type="text/css" href="../styles/style.css"?>
<svg class="svg-link" xmlns="http://www.w3.org/2000/svg" viewBox="0 0 106 60" xml:space="preserve"><path d="M53.5 28.6c-.4-.6-.7-1.3-.6-2v-2.9c0-.9.2-1.6.6-2 .4-.5 1.1-.7 2.1-.7.9 0 1.6.2 2 .6.4.5.6 1.1.6 1.7v.7h-1.6v-1.4c0-.2-.1-.3-.2-.4-.2-.1-.4-.2-.6-.2-.2 0-.4 0-.6.2-.1.1-.2.3-.3.4 0 .2-.1.5-.1.7V27c0 .3 0 .7.2 1 .1.1.2.2.3.2.1.1.3.1.4.1.2 0 .4 0 .6-.2.1-.1.2-.3.2-.4 0-.2.1-.5.1-.7v-.7h1.5v.6c0 .6-.2 1.3-.6 1.8-.4.4-1 .6-2 .6-.9 0-1.6-.2-2-.7zm6.9.2c-.4-.4-.6-1.1-.6-2v-3c0-.9.2-1.5.6-1.9.4-.4 1.1-.7 2.1-.7s1.7.2 2.1.7c.4.4.6 1.1.6 1.9v3c0 .9-.2 1.5-.6 2s-1.1.7-2.1.7c-1-.1-1.7-.3-2.1-.7zm2.8-.8c.1-.3.2-.6.2-.9v-3.7c0-.3 0-.6-.2-.9-.1-.1-.2-.2-.3-.2-.1-.1-.3-.1-.4-.1-.1 0-.3 0-.4.1s-.3.1-.3.2c-.1.3-.2.6-.2.9V27c0 .3 0 .6.2.9.1.1.2.2.3.2.1.1.3.1.4.1.1 0 .3 0 .4-.1.1 0 .2 0 .3-.1zm3.9-6.7h1.8l1.3 5.6 1.4-5.6h1.7l.2 8.1h-1.3l-.1-5.6-1.3 5.6h-1l-1.4-5.6-.1 5.6H67l.1-8.1zm8.3 0h2.8c1.6 0 2.4.8 2.4 2.3s-.8 2.2-2.5 2.2h-1v3.6h-1.7v-8.1zm2.4 3.4h.5c.2 0 .3-.1.4-.2.2-.3.3-.6.2-.9 0-.2 0-.5-.1-.7 0-.1-.1-.2-.1-.2l-.2-.2c-.2-.1-.5-.1-.8-.1h-.6v2.4h.7v-.1zm5.2-3.4h1.8l1.9 8.1h-1.6l-.4-1.9h-1.6l-.4 1.9h-1.6l1.9-8.1zm1.6 5.2-.7-3.4-.6 3.4h1.3zm3.6-5.2h1.2l2.3 4.6v-4.6h1.4v8.1H92l-2.3-4.8v4.8h-1.5v-8.1zm8.2 5-1.9-5h1.6l1.2 3.2 1.1-3.2h1.6l-1.9 5v3.1h-1.6l-.1-3.1zm-40.3 6.5v.4h-1.4v3.3h-.6v-3.3h-1.4v-.4h3.4zm4.4 3.7H60l-.1-.1-.4-.9h-1.9l-.5.8s0 .1-.1.1h-.5l1.7-3.7h.6c0 .1 1.7 3.8 1.7 3.8zm-2.8-1.3h1.6l-.7-1.5c-.1-.1-.1-.2-.1-.3 0 .1 0 .1-.1.2l-.1.2-.6 1.4zm5.7 1h.6c.1 0 .2 0 .2-.1.1 0 .1-.1.2-.1v-.8h-.7v-.3H65v1.4c-.1.1-.2.1-.3.2-.1.1-.2.1-.4.1-.1 0-.3.1-.4.1h-.5c-.3 0-.6 0-.9-.1-.3-.1-.5-.2-.7-.4-.2-.2-.3-.4-.4-.6-.1-.2-.2-.5-.2-.8 0-.3 0-.5.2-.8.1-.2.2-.4.4-.6s.4-.3.7-.4c.3-.1.6-.1.9-.1h.5c.1 0 .3.1.4.1.1 0 .2.1.3.1.1.1.2.1.3.2l-.2.2-.1.1h-.2c-.1 0-.1-.1-.2-.1s-.1-.1-.2-.1-.2-.1-.3-.1h-.4c-.2 0-.4 0-.7.1-.2.1-.4.2-.5.3-.1.1-.2.3-.3.5-.2.4-.2.8 0 1.2.1.2.2.3.3.5.1.1.3.2.5.3h.8zm5.4-.2h1.9v.4h-2.4v-3.7h.6c0 .1-.1 3.3-.1 3.3zm3.8.5H72v-3.7h.6v3.7zm2.2-3.7 2.6 2.9v-2.8h.5v3.7h-.4s-.1 0-.1-.1l-2.5-2.8v2.8h-.5v-3.7h.4c-.1 0 0 0 0 0zm7.3 0v.4h-2v1.2h1.7v.4h-1.7v1.3h2v.4h-2.7v-3.7h2.7zM21.3 9.9l25.8 6.3v22.2L21.3 32V9.9zM19.6 8v25.1l29.1 7.1V15.1L19.6 8z"/><path d="M35.2 52 6.1 44.8v-25l29.1 7.1V52z"/><path d="m20.1 9.6 25.5 6.2-10.8 9.3L9.3 19l10.8-9.4zM19.6 8 6.1 19.8l29.1 7.1 13.5-11.7L19.6 8zm17.2 42.5 11.9-10.2-11.9-2.9v13.1z"/></svg>
