<?xml-stylesheet type="text/css" href="../styles/style.css"?>
<svg class="svg-link" xmlns="http://www.w3.org/2000/svg" viewBox="0 0 106 60" xml:space="preserve"><path d="M26.5 45.3c.2.3.4.6.4 1 0 .2 0 .5-.1.7s-.2.4-.4.6c-.5.3-1.1.5-1.7.5h-3v-6.2h2.8c.6 0 1.1.1 1.6.4.2.1.3.3.4.5.1.1.2.3.2.5 0 .3-.1.7-.3.9-.2.2-.5.4-.9.5.5.1.8.3 1 .6zm-3.4-1h1.2c.3 0 .6-.1.8-.2.1-.1.2-.2.2-.3s.1-.2.1-.3 0-.2-.1-.3c0-.1-.1-.2-.2-.3-.2-.2-.5-.2-.8-.2h-1.2v1.6zm2.2 2.4c.1-.1.2-.2.2-.3s.1-.2.1-.3 0-.2-.1-.3c-.1-.1-.1-.2-.2-.3-.2-.2-.5-.2-.8-.2h-1.3V47h1.3c.1-.1.5-.1.8-.3zm7 1.2-1.6-2.4h-.6v2.4h-1.4v-6.2h2.6c.6 0 1.3.1 1.8.5.4.3.6.8.6 1.2s-.1.9-.4 1.3c-.3.3-.8.6-1.2.6l1.7 2.5h-1.5v.1zm-2.1-3.2h1.1c.8 0 1.2-.3 1.2-.9 0-.1 0-.3-.1-.4-.1-.1-.1-.2-.2-.3-.2-.2-.6-.3-.9-.3h-1.1c-.1 0-.1 1.9 0 1.9zm9.6 2H37l-.5 1.2h-1.4l2.5-6.1h1.5l2.5 6.1h-1.4c.1 0-.4-1.2-.4-1.2zm-.5-1-1-2.6-1 2.6h2zm9.7 2.2h-1.3l-3-4.2v4.2h-1.3v-6.2h1.3l3 4.2v-4.2h1.4v6.2H49zm7.8-1.5c-.3.5-.7.8-1.2 1.1-.6.3-1.2.4-1.9.4h-2.4v-6.2h2.4c.7 0 1.3.1 1.9.4.5.2.9.6 1.2 1.1s.4 1.1.4 1.6-.1 1.1-.4 1.6zm-1.5-.1c.4-.4.6-.9.6-1.5 0-.5-.2-1.1-.6-1.5-.5-.4-1.1-.6-1.7-.5h-.9v4h.9c.5.1 1.2-.1 1.7-.5zm-14.6-39s17.4 6 17.1 14.8v14.8s-17.4-6-17.1-14.8V7.3zm32.6 26.1c3.3-2.1 7.1-3.4 11.1-3.7v-4.6c-4.6 1.5-8.6 4.4-11.1 8.3z"/><path d="M71.3 34.7c2.7-5 7.4-8.8 13.1-10.7V10.7s-24.8 8.6-24.3 21v21s1.1-.4 2.8-1.1c0-.7 0-1.3.1-2 .4-5.8 3.4-11.1 8.3-14.9z"/><path d="M68.8 42.5c.1-1.5.4-2.9.9-4.3-3 3.2-4.8 7.2-5.2 11.5 0 .4-.1.8-.1 1.2 1.4-.6 3.1-1.4 4.8-2.3-.4-2-.5-4-.4-6.1zm1 .1c-.2 1.8-.1 3.7.3 5.5 6.8-3.7 14.4-9.5 14.1-16.4v-.6c-4.8.5-9.4 2.4-12.9 5.5-.7 2-1.2 4-1.5 6z"/></svg>
