<?xml-stylesheet type="text/css" href="../styles/style.css"?>
<svg class="svg-link" xmlns="http://www.w3.org/2000/svg" viewBox="0 0 106 60" xml:space="preserve">
<path d="M50.1 6.9h-2.4c-3.7.2-7.3 1.2-10.6 2.7l-.5.2V32l1-.3c.9-.3 1.8-.6 2.8-.8 2.6-.7 5.4-1 8.1-1.1v2.9h-1.2c-2.1.1-4.2.4-6.2 1-2.6.6-5.1 1.6-7.4 2.9V8.1c2.4-1.4 5.1-2.5 7.8-3.2 2.5-.6 4.9-.9 7.4-.9h.4c.5 0 1 0 1.5.1 1.2.1 2.5.3 3.7.6v2.9c-1.2-.3-2.3-.4-3.5-.5h-.1c-.3-.1-.6-.2-.8-.2zm5.1 3c.6 0 1.3.1 2 .1 2.6 0 5.2-.3 7.7-1 2.6-.6 5.1-1.6 7.4-2.9V34c-2.4 1.4-5.1 2.5-7.8 3.2-2.4.6-4.9.9-7.3.9-1.9 0-3.7-.2-5.6-.7V9.3c.4.1.9.2 1.3.3.7.1 1.5.2 2.3.3zm14.1.2-1 .3c-.9.3-1.9.6-2.8.8-2.7.8-5.5 1.1-8.4 1.1-.7 0-1.3 0-1.9-.1l-.8-.1V35l.7.1c.6.1 1.3.1 2 .1 2.2 0 4.5-.3 6.6-.9 1.8-.4 3.5-1.1 5.2-1.9l.4-.2V10.1zM35.7 46.2c-.1-.2-.3-.3-.5-.3-.2-.1-.4-.1-.6-.1-.2 0-.4 0-.7.1-.2.1-.4.2-.5.3-.1.1-.3.3-.3.5-.1.2-.1.4-.1.6v3.8c0 .3 0 .5.1.8.1.2.2.4.4.5s.3.2.5.3.4.1.6.1c.2 0 .4 0 .6-.1s.4-.2.5-.4c.2-.2.3-.3.4-.5.1-.2.1-.4.1-.6v-.4h-1v.3c0 .1 0 .2-.1.3 0 .1-.1.2-.1.2-.1 0-.1.1-.2.1h-.5c-.1 0-.2-.1-.2-.2-.1-.1-.1-.2-.1-.4v-3.5c0-.2 0-.4.1-.6l.2-.2c.1 0 .2-.1.3 0 .1 0 .2 0 .2.1s.2 0 .2.1c.1.1.2.3.2.5v.3h1v-.4c0-.2 0-.5-.1-.7-.1-.2-.2-.3-.4-.5zm5.9 0c-.3-.3-.7-.4-1.1-.4-.2 0-.4 0-.6.1-.2.1-.4.2-.5.3-.2.1-.3.3-.4.5s-.1.5-.1.7V51c0 .3 0 .5.1.7s.2.4.4.5c.2.1.3.2.5.3.2.1.4.1.6.1s.4 0 .6-.1c.2-.1.4-.2.5-.3.2 0 .3-.2.4-.4s.2-.5.1-.7v-3.6c0-.3 0-.5-.1-.7-.1-.3-.2-.5-.4-.6zm-.4 4.9v.3c0 .1-.1.2-.2.2-.1.1-.3.2-.5.2s-.3-.1-.5-.2l-.2-.2v-4.2c.1-.1.2-.2.2-.3.1-.1.3-.2.5-.2s.3.1.5.2c0 .1.1.2.1.2l.1 4zm8.2 1.6v-6.9h-1l-1.3 3.6-1.3-3.6h-.9v6.9h1v-4.2l1 3h.5l1-3v4.2h1zm5.6-6.4c-.2-.2-.3-.3-.6-.4-.2-.1-.5-.1-.7-.1h-1.5v6.9h1V50h.5c.3 0 .6-.1.9-.2.2-.1.4-.3.5-.5.1-.2.2-.4.2-.6 0-.3.1-.5.1-.8s0-.7-.1-1c0-.2-.2-.4-.3-.6zm-.5 2.1c0 .1 0 .2-.1.4-.1.1-.1.2-.3.2-.1.1-.3.1-.5.1h-.4v-2.3h.5c.2 0 .3 0 .4.1s.2.1.2.3c.1.1.1.3.1.4v.5c.1 0 .1.1.1.3zm5.1-2.6h-.8l-1.5 6.9h1l.3-1.5h1.3l.3 1.5h1l-1.6-6.9zm-.9 4.5.5-2.5.5 2.5h-1zm7.2-.3-1.5-4.2h-.9v6.9h1v-4.1l1.5 4.1h.9v-6.9h-1V50zm6-4.2-.8 2.7-.8-2.7h-1l1.3 4v2.9h1v-2.9l1.3-4h-1zM33 54.6h.5V56h.3v-1.3h.5v-.3H33v.2zm4-.2-.6 1.6h.3l.1-.4h.6l.2.4h.4l-.6-1.6H37zm-.1.9.2-.6.2.6h-.4zm4 .1h.4v.2c-.1.1-.2.1-.4.1h-.2c-.1 0-.1-.1-.2-.1-.1-.1-.1-.3-.1-.4 0-.4.2-.5.5-.5.1 0 .2 0 .2.1.1 0 .1.1.1.2l.3-.1c-.1-.3-.3-.5-.7-.5-.2 0-.4.1-.6.2-.1.1-.1.2-.2.3 0 .1-.1.2 0 .3 0 .2.1.4.2.6.1.1.2.1.3.2h.4c.3 0 .5-.1.7-.3v-.6h-.7v.3zm4-1h-.3V56h1.1v-.3h-.8v-1.3zm3.4 0H48V56h.3v-1.6zm3.3 1-.6-1h-.3V56h.3v-1l.6 1h.3v-1.6h-.3v1zm3-.1h.8V55h-.8v-.4h.9v-.3h-1.2V56h1.2v-.3h-.9v-.4zm7.3-.3h-.6v-.6H61V56h.3v-.7h.6v.7h.3v-1.6h-.3v.6zm3 .3h.8V55h-.8v-.4h.9v-.3h-1.2V56h1.2v-.3h-.9v-.4zm4.1 0c.3 0 .4-.2.4-.4v-.2c0-.1-.1-.1-.1-.2-.1-.1-.3-.1-.5-.1h-.7V56h.3v-.7h.3l.1.1.3.5h.4l-.2-.3c0-.1-.1-.2-.3-.3zm-.3-.3h-.2v-.4h.6l.1.1c.1.1 0 .1 0 .1v.1s0 .1-.1.1c-.2 0-.3.1-.4 0zm3.4.3h.8V55h-.8v-.4h.9v-.3h-1.2V56H73v-.3h-.9v-.4z"/>
</svg>
