<?xml-stylesheet type="text/css" href="../styles/style.css"?>
<svg class="svg-link" xmlns="http://www.w3.org/2000/svg" viewBox="0 0 106 60" xml:space="preserve"><path d="M31.8 22.1c-2.4 0-4.3 1.7-4.3 3.9 0 2.1 1.9 3.9 4.3 3.9s4.3-1.7 4.3-3.9c.1-2.2-1.9-3.9-4.3-3.9zm32-1.2c0-3-1.3-5.8-3.7-7.9-2.3-2.1-5.5-3.3-8.9-3.3-3.3 0-6.5 1.2-8.9 3.3-2.4 2.1-3.7 4.9-3.7 7.9v16.3c.2 0 25.2-2.5 25.2-16.3zM18.7 42.5c0 2.1.9 4 2.6 5.5 1.7 1.5 3.9 2.3 6.2 2.3s4.5-.8 6.2-2.3c1.6-1.5 2.6-3.4 2.6-5.5V31.2c-.1 0-17.6 1.7-17.6 11.3zm8.7 2.1c-.5 0-.9-.1-1.3-.3s-.7-.5-.8-.9c-.2-.4-.2-.8-.1-1.2.1-.4.3-.8.6-1 .3-.3.7-.5 1.2-.6.4-.1.9 0 1.3.1.4.2.8.4 1 .7.3.3.4.7.4 1.1 0 .3-.1.5-.2.8-.1.2-.3.5-.5.7s-.5.3-.7.4c-.3.1-.6.2-.9.2zm17.7-1.1h-1.7v1.7h-.9v-4.3h2.8v.8h-1.9v1.1h1.7v.7zm4.2-.3c0 .4-.1.8-.2 1.1s-.4.6-.6.7c-.3.2-.6.3-.9.3-.4 0-.7-.1-.9-.3-.3-.2-.5-.4-.6-.7-.2-.3-.2-.7-.2-1.1V43c0-.4.1-.8.2-1.1.2-.3.4-.6.6-.7.3-.2.6-.3.9-.3.4 0 .7.1.9.3.3.2.5.4.6.7.2.3.2.7.2 1.1v.2zm-.8-.2c0-.4-.1-.8-.2-1-.2-.2-.4-.3-.7-.3-.3 0-.5.1-.7.3s-.2.6-.2 1v.2c0 .4.1.8.2 1 .2.2.4.4.7.4.3 0 .5-.1.7-.3s.2-.6.2-1V43zm3.7 1.1c0-.2-.1-.3-.2-.4-.1-.1-.3-.2-.6-.3s-.5-.2-.7-.3c-.5-.3-.7-.6-.7-1.1 0-.2.1-.4.2-.6.1-.2.3-.3.6-.4.2-.1.5-.2.8-.2s.6.1.8.2.4.3.6.5c.1.2.2.4.2.7h-.9c0-.2-.1-.3-.2-.5-.1-.1-.3-.2-.5-.2s-.4 0-.5.1c-.1.1-.2.2-.2.4 0 .1.1.3.2.3.1.1.3.2.6.3.5.2.9.3 1.1.6.2.2.3.5.3.8 0 .4-.1.7-.4.9-.3.2-.7.3-1.1.3-.3 0-.6-.1-.9-.2-.3-.1-.5-.3-.6-.5s-.2-.5-.2-.7h.8c0 .5.3.7.8.7.2 0 .4 0 .5-.1 0 0 .1-.2.2-.3zm4.7-2.4h-1.3v3.6h-.9v-3.6h-1.3V41h3.5v.7zm3.1 1.7h-1.7v1.1h2v.7h-2.9v-4.3h2.9v.8h-2v1H60v.7zm2.3.2h-.7v1.6h-.9v-4.3h1.6c.5 0 .9.1 1.2.3.3.2.4.5.4 1 0 .3-.1.5-.2.7-.1.2-.3.3-.6.5l.9 1.7h-.9l-.8-1.5zm-.7-.7h.7c.2 0 .4-.1.5-.2.1-.1.2-.3.2-.5s-.1-.4-.2-.5h-1.2v1.2zm5.4.8v1.5h-.9v-4.3h1.7c.3 0 .6.1.8.2s.4.3.6.5c.1.2.2.5.2.7 0 .4-.1.7-.4 1-.4.3-.8.4-1.3.4H67zm0-.7h.8c.2 0 .4-.1.5-.2.1-.1.2-.3.2-.5s-.1-.4-.2-.5c-.1-.1-.3-.1-.5-.1H67V43zm5.5.4h-1.7v1.1h2v.7h-2.9v-4.3h2.9v.8h-2v1h1.7v.7zm4.1-1.7h-1.3v3.6h-.9v-3.6h-1.3V41h3.5v.7zm3.1 1.7H78v1.1h2v.7h-2.9v-4.3H80v.8h-2v1h1.7v.7zm2.4.2h-.7v1.6h-.9v-4.3h1.6c.5 0 .9.1 1.2.3.3.2.4.5.4 1 0 .3-.1.5-.2.7s-.3.3-.6.5l.9 1.7h-.9l-.8-1.5zm-.7-.7h.7c.2 0 .4-.1.5-.2.1-.1.2-.3.2-.5s-.1-.4-.2-.5h-1.2c-.1 0-.1 1.2 0 1.2zm5.1 1.2c0-.2-.1-.3-.2-.4-.1-.1-.3-.2-.6-.3-.3-.1-.5-.2-.7-.3-.5-.3-.7-.6-.7-1.1 0-.2.1-.4.2-.6.1-.2.3-.3.6-.4.2-.1.5-.2.8-.2s.6.1.8.2c.2.1.4.3.6.5.1.2.2.4.2.7h-.9c0-.2-.1-.3-.2-.5-.1-.1-.3-.2-.5-.2s-.4 0-.5.1c-.1.1-.2.2-.2.4 0 .1.1.3.2.3.1.1.3.2.6.3.5.2.9.3 1.1.6.2.2.3.5.3.8 0 .4-.1.7-.4.9s-.7.3-1.1.3c-.3 0-.6-.1-.9-.2-.3-.1-.5-.3-.6-.5s-.2-.5-.2-.7h.9c0 .5.3.7.8.7.2 0 .4 0 .5-.1.1 0 .1-.2.1-.3z"/></svg>
